<?xml version="1.0"?>
<svg  xmlns="http://www.w3.org/2000/svg" height="48px" width="48px" xmlns:xlink="http://www.w3.org/1999/xlink">
<defs>
	<linearGradient id="c" y2="25.86" gradientUnits="userSpaceOnUse" y1="10.73" x2="17.83" x1="18.81">
		<stop stop-color="#fff" offset="0"/>
		<stop stop-color="#fff" stop-opacity=".22" offset=".5"/>
		<stop stop-color="#fff" offset="1"/>
	</linearGradient>
	<linearGradient id="e" y2="39.6" gradientUnits="userSpaceOnUse" x2="35.6" gradientTransform="matrix(1.343 0 0 1.235-5.43-5.61)" y1="18.38" x1="20.79">
		<stop stop-color="#f8f8f7" offset="0"/>
		<stop stop-color="#e8e8e8" offset=".6"/>
		<stop stop-color="#d3d7cf" offset="1"/>
	</linearGradient>
	<linearGradient id="k" y2="30.6" gradientUnits="userSpaceOnUse" y1="23.35" x2="31.3" x1="27">
		<stop stop-color="#555753" offset="0"/>
		<stop stop-color="#2e3436" offset="1"/>
	</linearGradient>
	<linearGradient id="SVGID_3_" x1="-146.9" gradientUnits="userSpaceOnUse" y1="52.71" gradientTransform="matrix(1.335 0 0-1.291 229.6 104.1)" x2="-144.3" y2="55.65">
		<stop stop-color="#7d7d7d" offset="0"/>
		<stop stop-color="#b1b1b1" offset=".5"/>
		<stop stop-color="#686868" offset="1"/>
	</linearGradient>
	<linearGradient id="d" gradientUnits="userSpaceOnUse" x2="0" gradientTransform="matrix(.061 0 0 .024 5.65 33.59)" y1="366.6" y2="609.5">
		<stop stop-opacity="0" offset="0"/>
		<stop offset=".5"/>
		<stop stop-opacity="0" offset="1"/>
	</linearGradient>
	<radialGradient id="h" gradientUnits="userSpaceOnUse" cy="29.9" cx="26.64" gradientTransform="matrix(.658 0 0 .719.04-1.86)" r="22.38">
		<stop stop-color="#9cbcde" offset="0"/>
		<stop stop-color="#204a87" offset="1"/>
	</radialGradient>
	<radialGradient id="f" xlink:href="#i" gradientUnits="userSpaceOnUse" cy="39" cx="40" r="4"/>
	<radialGradient id="g" gradientUnits="userSpaceOnUse" cy="167.1" cx="-297.6" gradientTransform="matrix(2.593 0 0-2.252 782.8 383.2)" r="6.66">
		<stop stop-color="#fff" stop-opacity=".6" offset="0"/>
		<stop stop-color="#fff" stop-opacity="0" offset="1"/>
	</radialGradient>
	<radialGradient id="i" gradientUnits="userSpaceOnUse" cy="36.42" cx="24.84" gradientTransform="matrix(.799 0 0 .256-1.76 21.91)" r="15.64">
		<stop offset="0"/>
		<stop stop-opacity="0" offset="1"/>
	</radialGradient>
	<radialGradient id="r" gradientUnits="userSpaceOnUse" cy="81.8" cx="-171.6" gradientTransform="matrix(1.399 0 0-1.399 259.5 136.2)" r="8.31">
		<stop stop-color="#729fcf" offset="0"/>
		<stop stop-color="#204a87" offset="1"/>
	</radialGradient>
	<radialGradient id="o" gradientUnits="userSpaceOnUse" cy="7.27" cx="8.14" gradientTransform="matrix(.968 0 0 1.033 3.35.65)" r="38.2">
		<stop stop-color="#fff" offset="0"/>
		<stop stop-color="#f8f8f8" offset="1"/>
	</radialGradient>
	<radialGradient id="p" xlink:href="#i" gradientUnits="userSpaceOnUse" cy="42.1" cx="24.31" gradientTransform="matrix(1.076 0 0 .285-1.85 30.8)" r="15.82"/>
	<radialGradient id="j" gradientUnits="userSpaceOnUse" cy="17.68" cx="-9.5" gradientTransform="matrix(2.962 0 0 4.574 45.3-70.3)" r="8.75">
		<stop stop-color="#fff" offset="0"/>
		<stop stop-color="#b8b8b8" offset="1"/>
	</radialGradient>
	<radialGradient id="n" gradientUnits="userSpaceOnUse" cy="3.76" cx="8.82" gradientTransform="matrix(.968 0 0 1.033 3.35.65)" r="37.75">
		<stop stop-color="#a3a3a3" offset="0"/>
		<stop stop-color="#4c4c4c" offset="1"/>
	</radialGradient>
	<radialGradient id="l" xlink:href="#i" gradientUnits="userSpaceOnUse" cy="486.6" cx="605.7" gradientTransform="matrix(-.063 0 0 .024 51.2 33.6)" r="117.1"/>
	<radialGradient id="m" xlink:href="#i" gradientUnits="userSpaceOnUse" cy="36.42" cx="24.84" gradientTransform="matrix(.85 0 0 .256-1.83 21.61)" r="15.64"/>
</defs>
<g transform="translate(3)">
	<ellipse opacity=".8" rx="17" ry="4.5" cy="42.8" cx="24.3" fill="url(#p)"/>
	<rect rx="1.2" height="41" width="34.88" stroke="url(#n)" y="3.65" x="6.6" fill="url(#e)"/>
	<rect rx=".2" height="39" width="32.78" stroke="url(#o)" y="4.58" x="7.66" fill="none"/>
	<g fill="#888a85" fill-opacity=".6">
		<use y="8" xlink:href="#a"/>
		<rect rx=".2" height="1" width="18" y="8" x="14" fill="#2e3436"/>
		<use y="19" xlink:href="#a"/>
		<rect rx=".16" height="1" width="11" y="38" x="15"/>
		<g id="a">
			<g id="q">
				<g id="s">
					<rect rx=".23" height="1" width="23" y="11" x="14"/>
					<rect rx=".22" height="1" width="1" y="11" x="12" fill="#2e3436"/>
				</g>
				<rect rx=".22" height="1" width="20" y="13" x="15"/>
				<rect rx=".22" height="1" width="1" y="13" x="13" fill="#2e3436"/>
			</g>
			<use xlink:href="#q" transform="translate(0 4)"/>
		</g>
		<rect rx=".2" height="1" width="1" y="38" x="13" fill="#2e3436"/>
	</g>
</g>
<circle opacity=".5" cy="39" cx="40" r="4" fill="url(#f)"/>
<ellipse opacity=".5" rx="13.3" ry="4" cy="31" cx="19.3" fill="url(#m)"/>
<circle opacity=".86" cy="15.31" cx="16.42" r="12.3" fill="url(#h)"/>
<g transform="translate(-1.85-2.14)" fill="#ddd" stroke-linecap="round">
	<path stroke="url(#k)" stroke-width="2" d="m18.63 3.14c-8.14 0-14.75 6.61-14.75 14.75s6.61 14.74 14.75 14.74c3.48 0 6.55-1.38 9.1-3.4-0.2 1-0.08 2.04 0.76 2.76l10.96 9.53c1.23 1.07 3.09 0.93 4.16-0.3 1.07-1.24 0.93-3.09-0.3-4.16l-10.97-9.53c-0.67-0.58-1.49-0.76-2.3-0.64 1.98-2.52 3.36-5.55 3.36-9 0-8.14-6.6-14.75-14.74-14.75zm-0.08 1.23c7.64 0 13.29 4.79 13.29 13.29 0 8.68-5.81 13.29-13.29 13.29-7.3 0-13.29-5.47-13.29-13.29 0-7.98 5.82-13.29 13.29-13.29z"/>
		<path d="m18.6 3.08c-8.16 0-14.79 6.63-14.79 14.79 0 8.17 6.63 14.8 14.79 14.8 3.49 0 6.58-1.39 9.11-3.42-0.21 1-0.08 2.04 0.75 2.77l11 9.56c1.24 1.07 3.1 0.93 4.18-0.3 1.07-1.24 0.93-3.1-0.31-4.18l-11-9.56c-0.67-0.58-1.49-0.75-2.31-0.64 1.99-2.52 3.38-5.57 3.38-9 0-8.16-6.63-14.79-14.8-14.79m-0.07 3.19c6.28 0 11.38 5.09 11.38 11.38 0 6.28-5.1 11.37-11.38 11.37s-11.38-5.09-11.38-11.37c0-6.29 5.1-11.38 11.38-11.38"/>
	<path d="m39.51 41.58c-0.48-2.28 1.39-4.81 3.58-4.79l-10.76-9.26c-2.94-0.06-4.27 2.27-3.78 4.6l10.96 9.45" fill="url(#SVGID_3_)"/>
	<circle stroke="url(#c)" cy="17.4" cx="18.38" r="13.77" fill="none"/>
	<circle fill-opacity=".3" stroke="#204a87" cy="17.55" cx="18.38" r="11.62" fill="url(#r)"/>
	<rect opacity=".43" rx="2.47" transform="matrix(.753.658-.649.761 0 0)" height="5" width="19" stroke="#fff" y="-.13" x="40.5" fill="none"/>
</g>
<g stroke="#204a87" stroke-width="1.5" stroke-opacity=".6">
	<path id="x" stroke-linejoin="round" fill="url(#j)" d="m14.79 12.32h3.33v10.59h-3.33zm3.33-4.63v2.76h-3.33v-2.76z"/>
</g>
<path d="m16.35 5.26c-5.21 0-9.43 4.21-9.43 9.42 0 1.51 0.42 2.89 1.05 4.15 1.25 0.46 2.58 0.78 3.99 0.78 6.18 0 11.1-4.86 11.48-10.94-1.73-2.05-4.21-3.41-7.09-3.41" fill="url(#g)"/>
<use xlink:href="#x" stroke="#fff" stroke-width=".8"/>
<g opacity=".2">
	<path d="m13 42.3h28v5.74h-28z" fill="url(#d)"/>
	<path id="b" fill="url(#l)" d="m13 42.3v5.74c-3.27 0-7.9-1.29-7.9-2.87s3.65-2.87 7.9-2.87"/>
	<use xlink:href="#b" transform="matrix(-1 0 0 1 54 0)"/>
</g>
</svg>